<?xml version="1.0" encoding="utf-8"?>
<!-- Generator: Adobe Illustrator 26.2.1, SVG Export Plug-In . SVG Version: 6.00 Build 0)  -->
<svg version="1.1" id="Layer_1" xmlns="http://www.w3.org/2000/svg" xmlns:xlink="http://www.w3.org/1999/xlink" x="0px" y="0px"
	 width="2000.1px" height="29.6px" viewBox="0 0 2000.1 29.6" style="enable-background:new 0 0 2000.1 29.6;" xml:space="preserve"
	>
<style type="text/css">
	.st0{clip-path:url(#SVGID_00000152979515384910833410000000384208152441767829_);}
	.st1{opacity:0.8;}
	.st2{clip-path:url(#SVGID_00000119807706079287959790000015676714605595261871_);}
	.st3{fill:#9B7547;}
</style>
<g>
	<defs>
		<rect id="SVGID_1_" width="2000.1" height="29.6"/>
	</defs>
	<clipPath id="SVGID_00000121983592586314612620000009254759603719041676_">
		<use xlink:href="#SVGID_1_"  style="overflow:visible;"/>
	</clipPath>
	<g id="Group_72" transform="translate(0 0)" style="clip-path:url(#SVGID_00000121983592586314612620000009254759603719041676_);">
		<g id="Group_71" class="st1">
			<g id="Group_70">
				<g>
					<defs>
						<rect id="SVGID_00000162340771930036919860000004153007644908539793_" width="2000.1" height="29.6"/>
					</defs>
					<clipPath id="SVGID_00000144321204319512997020000014014229156248066438_">
						<use xlink:href="#SVGID_00000162340771930036919860000004153007644908539793_"  style="overflow:visible;"/>
					</clipPath>
					<g id="Group_69" style="clip-path:url(#SVGID_00000144321204319512997020000014014229156248066438_);">
						<path id="Path_35" class="st3" d="M2000.1,23.1c-56.7-3.6-249.3-4.1-333.2-5.6c-32.3-0.3-56.9-0.7-75.4-1.1
							c-15.6-0.4,20.5,0.1,75.4,1.1c24.6,0.3,53.6,0.5,87.7,0.8c-42.5-1.6-83.4-3.1-112.6-4.4c-21.5-0.1-43.2-0.2-65.3-0.3
							c-97.2-0.6-191.2-0.7-287.3-1.6c-34.9-0.4-110.9-0.5-144.7-1.2l423.6,1.2c-3.8-0.1-7.6-0.2-11.4-0.3l-222.7-1.7
							c-12.6,0-25.3-0.1-38.5-0.3l38.5,0.3c33,0.1,65-0.3,101-0.4c22.2,0.1,47.5,0.7,69.7,0.8c18.1,0.1,34.8,0.8,52,1.3l33.3,0.3
							c3.2-0.1,6.7-0.1,10.3-0.1c-0.1,0-0.4,0-0.4,0c-27.5-3.1-307.4-7.4-353.9-6.8c-37,0.4-70.8,2.9-112,3.2
							c-13.8,0.1-25.4-0.6-35.9,0c-1,0.4-6.3,0.7-11.6,1c-27.4,0.2-54.9-1.3-76-0.1c-14.8,0.5-56-5.8-59.2-4.6
							c-11.6,4.2-3.2,1.2-38,0.8c-4.2-0.1-17.9,1.6-26.4,1.5c-28.5-1.1-37,0.4-69.7,0.9C768.6,8.6,758,5.9,714.8,8.6
							c-5.3,0.3-72.8,2-72.8,2c-52.8-0.4-85.5,1.7-126.8-1.2c-47.5,2.6-110.9-0.5-161.6,0C302.9,9.9,281.7,7.8,237.3,6
							c-12.7-0.3-22.2-0.1-29.6-0.7c-7.4-0.6-25.3,1.1-38,0.8c1-0.4,2.1-0.8,3.2-1.2c-4.2-0.1-12.7-0.3-16.9-0.4s-3.2-0.5-2.1-0.9
							c2.1-0.8,4.2-1.5-3.2-2.1C133,0.9,115,0.4,96.5,0C78.2,0.6,60.2,1.2,42.4,2c-1.5,0.8-3.1,1.3-4.7,1.5
							C32.4,3.7,27.1,4,21.9,4.3c-3.2,1.2-2.1,2.4-4.2,3.2c0,3.3-22.1,6.5-16.8,9.5c2.1,0.9,32.7,1.2,46.5,2.7
							c3.2,0.5-4.2,1.5-7.4,2.7c18,0,19,1.3,11.6,2.3c4.2,0.1,8.4,0.2,8.4,0.2c-1,0.4-4.2,1.5-4.2,1.5c45.4,1.4,96.2,4.2,140.5,2.8
							c9.5-0.2,25.3-1.1,35.9-1.6c5.3-0.3,16.9,0.4,21.1,0.5c7.4-1.1,6.3-2.3,9.5-3.5c32.8,1.2,103.5,3.2,101.4-1
							c26.4,0.2,31.7-1.7,59.1-1.9c36.4-0.3,82.5-0.6,128-0.7c24.9-0.3,48.8-0.2,73-0.2c9,0,17.8,0,26.1,0
							c180.6-0.4,313.9,2.8,490.1-0.3c355.2-6.4,746.5,3.2,834,4.1L2000.1,23.1z"/>
					</g>
				</g>
			</g>
		</g>
	</g>
</g>
</svg>
