<?xml version="1.0" encoding="utf-8"?>
<!-- Generator: Adobe Illustrator 26.2.1, SVG Export Plug-In . SVG Version: 6.00 Build 0)  -->
<svg version="1.1" id="Layer_1" xmlns="http://www.w3.org/2000/svg" xmlns:xlink="http://www.w3.org/1999/xlink" x="0px" y="0px"
	 width="736px" height="260px" viewBox="0 0 736 260" style="enable-background:new 0 0 736 260;" xml:space="preserve">
<style type="text/css">
	.st0{opacity:0.15;}
	.st1{clip-path:url(#SVGID_00000003085361737462797490000018126739118152155560_);}
	.st2{fill:#FFFFFF;}
	.st3{fill:#AB885F;}
</style>
<g id="Group_113">
	<g id="Group_112" transform="translate(78.926 2.163)" class="st0">
		<g id="Group_111">
			<g>
				<g>
					<defs>
						<rect id="SVGID_1_" x="307.6" y="8.5" width="160.7" height="152.4"/>
					</defs>
					<clipPath id="SVGID_00000129198215100117691010000003640046149001897888_">
						<use xlink:href="#SVGID_1_"  style="overflow:visible;"/>
					</clipPath>
					<g id="Group_110" style="clip-path:url(#SVGID_00000129198215100117691010000003640046149001897888_);">
						<path id="Path_43" d="M387.8,160.7c44.3,0,80.4-33.7,80.4-75.9s-36-76.3-80.4-76.3s-80.1,34.1-80.1,76.3
							S343.4,160.7,387.8,160.7"/>
					</g>
				</g>
			</g>
		</g>
	</g>
	<path id="Path_44" class="st2" d="M0,6.1c0-2,1.5-3.7,3.4-3.7c0.2,0,0.2,0,0.5,0h4.6c1.7-0.2,3.4,1.2,3.7,3.2c0,0.2,0,0.2,0,0.5
		v74.4L98.4,4.1c1.5-1.5,3.4-2,5.1-1.7h7.1c2.7,0,3.2,2.7,1.5,4.1L23.9,84.4l91.1,82.7c1.5,1.2,1,4.1-2.2,4.1h-8
		c-2.2,0-4.1-0.7-5.6-2.4l-86.9-80V168c0,2.4-1.7,3.2-3.9,3.2H3.4c-1.7,0.2-3.2-1-3.4-2.7c0-0.2,0-0.2,0-0.5V6.1z"/>
	<path id="Path_45" class="st2" d="M153.7,5.6c0-1.7,1.5-3.2,3.4-3.2h5.6c1.7,0,3.2,1.5,3.4,3.2V168c0,2-1.7,3.2-3.7,3.2l0,0h-5.4
		c-1.7,0-3.2-1.5-3.4-3.2L153.7,5.6z"/>
	<path id="Path_46" class="st2" d="M284,80.5c23.9,0,37.7-14.1,37.7-33.9c0-21-15.3-33.4-39.7-33.4h-45.3v67.3H284z M285.4,161
		c24.6,0,41.9-14.9,41.9-35.9c0-21.5-19.2-34.1-43.4-34.1h-47.5v70H285.4z M224.8,5.6c0.2-2,1.7-3.2,3.4-3.2h54.1
		c31.2,0,52.6,17.1,52.6,43.7c0,17.6-11.2,33.2-28,39c18,4.6,33.6,17.1,33.6,40.2c0,27.1-22.9,45.9-55.8,45.9h-56.5
		c-1.7,0-3.2-1.5-3.4-3.2C224.8,168,224.8,5.6,224.8,5.6z"/>
	<path id="Path_47" class="st2" d="M466.6,162.9c44.3,0,80.4-33.7,80.4-75.9s-36-76.3-80.4-76.3s-80.1,34.1-80.1,76.3
		S422.3,162.9,466.6,162.9 M466.6,0c50.9,0,91.6,38.8,91.6,87.1c0,48.5-40.7,86.6-91.6,86.6c-50.7,0-91.3-38-91.3-86.6
		C375.3,38.8,416,0,466.6,0"/>
	<path id="Path_48" class="st2" d="M602.5,5.6c0-1.7,1.5-3.2,3.4-3.2h5.4c1.7,0,3.2,1.5,3.4,3.2v102.9c0,31,20.5,53.9,54.3,53.9
		c34.1,0,54.8-22.7,54.8-53.7V5.6c0-2,1-3.2,3.7-3.2h5.1c1.7,0,3.2,1.5,3.4,3.2v104.1c0,36.8-26.3,63.9-66.7,63.9
		c-40.2,0-66.2-27.1-66.2-63.9L602.5,5.6z"/>
	<path id="Path_49" class="st2" d="M0.5,239.3l1.2-1.2c1-0.7,1.5-0.5,1.9,0.2c1.5,1.7,3.4,2.7,5.4,2.9c3.9,0,7.1-3.2,7.1-7.1
		c0-0.2,0-0.5,0-1v-25.4c0-0.5,0.5-1,1-1h2.2c0.5,0,1,0.5,1,1l0,0v25.1c0.5,5.9-3.9,11.2-9.7,11.7c-0.5,0-1,0-1.5,0
		c-3.4,0-6.3-1.5-8.5-3.9C0.2,240.2,0.2,239.5,0.5,239.3"/>
	<path id="Path_50" class="st2" d="M44.6,241.2c2.4,0,4.6-1.2,6.1-2.9v-4.1c-1.5-0.7-3.2-1-4.6-0.7c-3.2,0-5.4,1.5-5.4,4.1
		c0,2,1.5,3.7,3.7,3.7C44.3,241.5,44.3,241.5,44.6,241.2 M46,230.5c1.7,0,3.2,0.2,4.9,0.7c0-3.9-0.5-5.9-3.7-5.9
		c-2.2,0-4.6,0.5-6.8,1.2c-0.5,0.2-0.7,0-1-0.2v-0.2l-0.5-1.2c-0.2-0.7,0-1,0.7-1.2c2.4-1,5.1-1.5,7.8-1.5c5.8,0,7.1,2.7,7.1,9v11.7
		c0,0.5-0.5,1-1,1h-1c-0.7,0-0.7-0.2-1-0.7l-0.5-1.5c-1.9,1.7-4.4,2.7-7.1,2.7c-3.7,0.2-6.8-2.7-6.8-6.3c0-0.2,0-0.5,0-0.7
		C37,233.4,40.2,230.5,46,230.5"/>
	<path id="Path_51" class="st2" d="M81.8,241c4.1,0,7.3-3.2,7.3-7.3c0-0.2,0-0.2,0-0.5c0.2-3.9-2.7-7.6-6.6-7.8c-0.2,0-0.2,0-0.5,0
		c-2.2,0-4.4,1-5.8,2.7v11C77.9,240.2,79.9,241,81.8,241 M76.5,259c0,0.5-0.5,1-1,1h-1.7c-0.5,0-1-0.5-1-1v-35.4c0-0.5,0.5-1,1-1H75
		c0.5,0,0.7,0.2,1,0.7l0.5,1c1.9-1.5,4.1-2.2,6.6-2.2c6.1,0.2,11,5.4,10.7,11.7c-0.2,5.9-4.9,10.5-10.7,10.7c-2.2,0-4.1-0.5-6.1-1.7
		L76.5,259z"/>
	<path id="Path_52" class="st2" d="M115.7,241.2c2.4,0,4.6-1.2,6.1-2.9v-4.1c-1.5-0.7-3.2-1-4.6-0.7c-3.2,0-5.4,1.5-5.4,4.1
		c0,2,1.5,3.7,3.7,3.7C115.4,241.5,115.4,241.5,115.7,241.2 M117.1,230.5c1.7,0,3.2,0.2,4.9,0.7c0-3.9-0.5-5.9-3.7-5.9
		c-2.2,0-4.6,0.5-6.8,1.2c-0.5,0.2-0.7,0-1-0.2v-0.2l-0.5-1.2c-0.2-0.7,0-1,0.7-1.2c2.4-1,5.1-1.5,7.8-1.5c5.8,0,7.1,2.7,7.1,9v11.7
		c0,0.5-0.5,1-1,1h-1c-0.7,0-0.7-0.2-1-0.7l-0.5-1.5c-1.9,1.7-4.4,2.7-7.1,2.7c-3.7,0.2-6.8-2.7-6.8-6.3c0-0.2,0-0.5,0-0.7
		C108.1,233.4,111.3,230.5,117.1,230.5"/>
	<path id="Path_53" class="st2" d="M143.7,223.7c0-0.5,0.5-1,1-1h1c0.5,0,0.7,0.2,1,0.7l0.5,1.7c2.2-1.7,5.1-2.7,7.8-2.9
		c6.6,0,8.8,4.1,8.8,9.5v11.2c0,0.5-0.5,1-1,1H161c-0.5,0-1-0.5-1-1v-11.2c0-4.1-1.9-6.1-5.1-6.1c-2.7,0-5.4,1.2-7.3,2.9v14.1
		c0,0.5-0.5,1-1,1h-1.7c-0.5,0-1-0.5-1-1L143.7,223.7z"/>
	<path id="Path_54" class="st2" d="M197.5,231.2c-0.2-3.4-2.9-5.9-6.3-5.9c-3.4-0.2-6.6,2.4-7.1,5.9H197.5z M191.2,222.2
		c5.4-0.2,10,3.9,10.2,9c0,0.2,0,0.5,0,0.5c0,0.5,0,1,0,1.5s-0.5,1-1,1h-16.3c0.5,3.9,3.7,6.8,7.5,6.8c1.9,0,3.9-0.5,5.6-1.7
		c0.7-0.5,1.2-0.7,1.5,0c0.2,0.5,0.7,0.7,1,1.2c0.2,0.5,0.7,0.7-0.2,1.5c-2.4,1.7-5.4,2.4-8.3,2.4c-6.1,0-11.2-4.9-11.2-11.2
		C180,227.3,185.1,222.2,191.2,222.2"/>
	<path id="Path_55" class="st2" d="M216.3,241c0.2-0.2,0.7-1,0.7-1.2c0.5-0.5,1-0.5,1.5-0.2c1.5,1.2,3.4,1.7,5.4,2
		c2.2,0,3.7-1.2,3.7-2.4c0-2-1.7-2.7-4.9-4.1c-2.9-1.5-6.3-3.2-6.3-6.8c0-2.2,1.9-5.6,7.1-5.6c2.2,0,4.4,0.5,6.3,1.7
		c0.5,0.5,0.7,1,0.2,1.7l-0.5,0.7c-0.2,0.5-1,0.7-1.7,0.5c-1.5-0.7-2.9-1.2-4.6-1.2c-2.4,0-3.2,1.2-3.2,2.2c0,1.7,1.9,2.4,4.1,3.7
		c3.9,1.7,7.3,3.4,7.3,7.3c-0.5,3.9-3.9,6.3-7.8,6.1c-2.7,0-5.1-0.7-7.3-2.4C216.3,242,216,241.5,216.3,241"/>
	<path id="Path_56" class="st2" d="M263.5,231.2c-0.2-3.4-2.9-5.9-6.3-5.9c-3.4-0.2-6.6,2.4-7.1,5.9H263.5z M257.2,222.2
		c5.4-0.2,10,3.9,10.2,9c0,0.2,0,0.5,0,0.5c0,0.5,0,1,0,1.5s-0.5,1-1,1h-16.3c0.5,3.9,3.7,6.8,7.5,6.8c1.9,0,3.9-0.5,5.6-1.7
		c0.7-0.5,1.2-0.7,1.5,0c0.2,0.5,0.7,0.7,1,1.2c0.2,0.5,0.7,0.7-0.2,1.5c-2.4,1.7-5.4,2.4-8.3,2.4c-6.1,0-11.2-4.9-11.2-11.2
		C246.2,227.3,251.1,222.2,257.2,222.2L257.2,222.2"/>
	<path id="Path_57" class="st2" d="M308.1,208c0-0.7,0.5-1.2,1.2-1.2l0,0h1.7c0.7,0,1.2,0.5,1.5,1.2v15.1l17.5-15.9
		c0.2-0.2,0.7-0.5,1-0.5h2.7c0.5,0,1,0.2,1.2,1c0,0.5-0.2,0.7-0.5,1l-17.8,15.6l18.8,18c0.2,0.5,0.2,1.2-0.2,1.5
		c-0.2,0.2-0.5,0.2-0.7,0.2h-2.9c-0.5,0-0.7-0.2-1-0.5l-18-17.8v16.8c0,0.7-0.7,1.2-1.5,1.2h-1.7c-0.7,0-1.2-0.5-1.5-1.2l0,0V208
		H308.1z"/>
	<path id="Path_58" class="st2" d="M350.5,223.7c0-0.5,0.5-1,1-1h1.7c0.5,0,1,0.5,1,1v19.3c0,0.5-0.5,1-1,1h-1.7c-0.5,0-1-0.5-1-1
		V223.7z M349.7,210.5c0-1.5,1-2.7,2.4-2.9c1.5,0,2.7,1,2.9,2.4c0,1.5-1,2.7-2.4,2.9h-0.2C351,212.9,349.7,212,349.7,210.5"/>
	<path id="Path_59" class="st2" d="M374.1,225.9h-2.9c-0.5,0-1-0.5-1-1l0,0v-1.2c0-0.5,0.5-1,1-1l0,0h2.9v-5.9c0-0.5,0.5-1,1-1h1.7
		c0.5,0,1,0.5,1,1v6.1h6.6c0.5,0,1,0.2,1,1l0,0v1.2c0,0.5-0.5,1-1,1l0,0h-6.6v12.4c0,2.2,0.5,2.4,1.9,2.4s2.9-0.5,4.1-1.2
		c0.7-0.5,1,0,1.5,0.2l0.7,1.2c0.5,0.7,0.2,1-0.5,1.2c-1.9,1-4.1,1.7-6.6,1.7c-4.6,0-5.1-2.4-5.1-5.9L374.1,225.9z"/>
	<path id="Path_60" class="st2" d="M412.1,222.2c3.2,0,6.1,1.2,8,3.7c0.2,0.5,0.2,1,0,1.5l0,0l-1,0.7c-0.7,0.7-1.2,0.2-1.7-0.2
		c-1.5-1.5-3.2-2.2-5.1-2.2c-4.1,0-7.5,3.4-7.5,7.6s3.4,7.6,7.5,7.6c2.2,0,4.6-1,6.1-2.7c0.2-0.5,1-0.5,1.5-0.2c0,0,0,0,0.2,0.2
		l0.7,0.5c0.5,0.2,0.7,1,0.5,1.5l0,0c-1.9,2.9-5.1,4.6-8.5,4.4c-6.3,0.2-11.4-4.6-11.4-11c0,0,0,0,0-0.2
		C400.6,227.1,405.7,222.2,412.1,222.2"/>
	<path id="Path_61" class="st2" d="M437.2,207.8c0-0.5,0.5-1,1-1h1.7c0.5,0,1,0.5,1,1v17.3c2.2-1.7,4.9-2.7,7.5-2.9
		c5.6,0,8.8,3.4,8.8,9.5v11.2c0,0.5-0.5,1-1,1h-1.7c-0.5,0-1-0.5-1-1v-11.2c0-4.1-1.9-6.1-5.1-6.1c-2.7,0-5.4,1.2-7.3,2.9v14.1
		c0,0.5-0.5,1-1,1h-1.7c-0.5,0-1-0.5-1-1L437.2,207.8z"/>
	<path id="Path_62" class="st2" d="M491,231.2c-0.2-3.4-2.9-5.9-6.3-5.9c-3.4-0.2-6.6,2.4-7.1,5.9H491z M484.7,222.2
		c5.4-0.2,10,3.7,10.2,9c0,0.2,0,0.5,0,0.5c0,0.5,0,1,0,1.5s-0.5,1-1,1h-16.3c0.5,3.9,3.7,6.8,7.5,6.8c1.9,0,3.9-0.5,5.6-1.7
		c0.7-0.5,1.2-0.7,1.5,0c0.2,0.5,0.7,0.7,1,1.2c0.2,0.5,0.7,0.7-0.2,1.5c-2.4,1.7-5.4,2.4-8.3,2.4c-6.1,0-11.2-4.9-11.2-11.2
		C473.5,227.3,478.6,222.2,484.7,222.2"/>
	<path id="Path_63" class="st2" d="M511.2,223.7c0-0.5,0.5-1,1-1h1c0.5,0,0.7,0.2,1,0.7l0.5,1.7c2.2-1.7,5.1-2.7,7.8-2.9
		c6.6,0,8.8,4.1,8.8,9.5v11.2c0,0.5-0.5,1-1,1h-1.7c-0.5,0-1-0.5-1-1v-11.2c0-4.1-1.9-6.1-5.1-6.1c-2.7,0-5.4,1.2-7.3,2.9v14.1
		c0,0.5-0.5,1-1,1h-1.7c-0.5,0-1-0.5-1-1L511.2,223.7z"/>
	<path id="Path_64" class="st2" d="M590.6,214.6c-0.5-3.2-3.4-5.6-6.6-5.1c-2.9,0.5-4.9,2.7-5.1,5.6c0,2.2,1.5,4.1,3.7,6.1l1.2,1.2
		C586.2,220.7,590.6,218.3,590.6,214.6 M583.5,241.2c3.7,0,7.3-1.7,9.7-4.4l-10.5-10.2c-3.4,1.5-5.8,4.6-6.3,8.3
		C576.7,238.5,579.6,241.5,583.5,241.2L583.5,241.2 M580.4,224.1L580.4,224.1l-1.5-1.5c-2.4-2-3.9-4.6-3.9-7.8
		c0.2-4.9,4.4-8.8,9.3-8.5c0.2,0,0.5,0,0.7,0c4.6-0.5,9,2.7,9.5,7.3c0,0.2,0,0.5,0,0.7c0,4.6-5.1,8.3-8.3,10.2l9.3,8.8
		c1.5-2.9,2.2-6.1,2.2-9.5c0-1.2,0.5-1.2,1.2-1.2h1.5c1.2,0,1,0.7,1,1.2c0,4.1-1.2,8.3-3.4,12l5.4,5.1c0.7,0.7,1.2,1.2,0,2.4
		l-0.7,0.5c-0.7,0.7-1.7,0.5-2.2,0c0,0,0,0,0-0.2l-4.9-4.6c-3.2,3.4-7.5,5.4-12.2,5.4c-5.4,0.5-10.2-3.4-10.7-8.8c0-0.2,0-0.7,0-1
		C573.1,230,576,225.9,580.4,224.1"/>
	<path id="Path_65" class="st2" d="M657.6,223.4c3.4,0.2,6.6-2.4,6.8-5.9c0-0.2,0-0.5,0-0.7c0.2-3.4-2.4-6.3-5.8-6.3
		c-0.2,0-0.7,0-1,0h-9.3v12.9H657.6z M658.6,240.5c3.7,0.2,6.8-2.7,7.1-6.3v-0.2c-0.5-4.1-4.1-6.8-8-6.6h-9.3v13.2
		C648.3,240.5,658.6,240.5,658.6,240.5z M644.2,207.8c0-0.5,0.5-1,1-1l0,0h12.4c5.6-0.7,11,3.4,11.4,9c0,0.2,0,0.5,0,0.7
		c-0.2,3.7-2.2,6.8-5.6,8.5c3.9,1.2,6.6,4.6,6.8,8.5c-0.2,6.1-5.6,10.7-11.4,10.2c-0.2,0-0.5,0-0.7,0h-12.9c-0.5,0-1-0.5-1-1l0,0
		L644.2,207.8L644.2,207.8z"/>
	<path id="Path_66" class="st2" d="M693.1,241.2c2.4,0,4.6-1.2,6.1-2.9v-4.1c-1.5-0.7-3.2-1-4.6-0.7c-3.2,0-5.4,1.5-5.4,4.1
		c0,2,1.5,3.7,3.7,3.7C692.9,241.5,692.9,241.5,693.1,241.2 M694.6,230.5c1.7,0,3.2,0.2,4.9,0.7c0-3.9-0.5-5.9-3.7-5.9
		c-2.2,0-4.6,0.5-6.8,1.2c-0.5,0.2-0.7,0-1-0.2v-0.2l-0.5-1.2c-0.2-0.7,0-1,0.7-1.2c2.4-1,5.1-1.5,7.8-1.5c5.8,0,7.1,2.7,7.1,9v11.7
		c0,0.5-0.5,1-1,1h-1c-0.7,0-0.7-0.2-1-0.7l-0.5-1.5c-1.9,1.7-4.4,2.7-7.1,2.7c-3.7,0.2-6.8-2.7-6.8-6.3c0-0.2,0-0.5,0-0.7
		C685.6,233.4,688.8,230.5,694.6,230.5"/>
	<path id="Path_67" class="st2" d="M721.1,223.7c0-0.5,0.5-1,1-1h1c0.5,0,1,0.2,1,0.7l0.5,1.5c1.7-2,4.1-2.9,6.8-2.9
		c1.7,0,4.6,0.2,3.9,1.7l-0.7,1.7c-0.2,0.7-0.7,0.7-1.5,0.5c-0.7-0.2-1.5-0.5-2.2-0.5c-2.4,0-4.6,1-6.1,2.9v14.1c0,0.5-0.5,1-1,1
		h-1.7c-0.5,0-1-0.5-1-1V223.7z"/>
	<path id="Path_68" class="st3" d="M452.8,50c-4.1,3.7-8.5,7.1-13.4,10c6.8,3.2,13.4,6.6,19.7,10l-2.4,4.6
		c-6.8-3.9-14.6-8-22.4-11.7c-8.3,4.4-16.8,7.6-25.8,10l-1.9-4.6c7.8-1.7,15.3-4.4,22.4-8c-6.1-2.7-11.7-5.1-16.8-7.1l2.2-4.1
		c6.1,2.2,12.9,5.1,20,8.3c5.4-2.9,10.2-6.6,14.9-10.5L452.8,50z M431.8,68c-0.7,2.4-1.7,4.6-2.7,6.8h33.1v5.4h-35.3
		c-1.5,3.2-3.2,6.1-5.1,9h11.4v-7.8h4.6v7.8h18.5v21.5c0,5.4-1.5,7.6-6.3,7.6c-1.9,0-4.1-0.2-6.1-0.7l-1-5.6
		c1.9,0.5,3.9,0.7,6.1,0.7c2.2,0,2.7-0.5,2.7-3.2V94.1h-13.9v30.2h-4.6v-30h-11.9v25.1h-4.9V96.8c-2.9,3.9-6.3,7.8-10,11.2l-2.9-4.6
		c7.1-6.6,13.2-14.6,17.5-23.2h-16.6v-5.4h19c1.2-2.7,2.2-5.4,3.4-8.5L431.8,68z"/>
	<path id="Path_69" class="st3" d="M503.7,59.5H518v-6.3h-14.4V59.5z M503.4,70H518v-6.3h-14.4C503.7,65.9,503.7,68,503.4,70
		 M522.4,79.3c0,5.6-1.7,6.8-5.8,6.8c-1.7,0-3.4-0.2-5.1-0.5l-1.2-4.9c1.7,0.5,3.7,0.7,5.4,0.7c2.2,0,2.4-0.7,2.4-2.4v-5.1h-14.9
		c-0.5,5.1-2.4,9.8-5.4,13.9l-3.7-3.9c3.7-5.6,5.1-9.8,5.1-22.4V48.8h23.4L522.4,79.3z M466.9,122.7V118h26.5v-9.5H473v-4.4h20.5
		v-7.8c-7.1,0.5-14.4,0.7-21.2,0.7l-1.5-4.6h3.7c14.4,0.2,28.7-1,42.9-3.7l2.4,4.4c-6.6,1.2-14.1,2.2-21.9,2.9v8.3h20.7v4.4h-20.7
		v9.5h27v4.6L466.9,122.7z M494.6,82.7c-3.2,0.5-6.6,0.5-9.7,0.5c-2.4,0-4.9-0.2-7.3-0.5c-3.2-0.5-6.6-1.2-6.6-6.3V59.5h-4.1v-4.9
		h13.6v-8h4.6v8h11v4.9h-20.5v14.1c0,2.4,1.2,3.4,2.9,3.7c2.2,0.2,4.4,0.5,6.6,0.5c3.4,0,6.8-0.2,9.7-0.5L494.6,82.7z"/>
</g>
</svg>
